<svg width="24" height="24" viewBox="0 0 24 24" fill="none" xmlns="http://www.w3.org/2000/svg">
<rect width="24" height="24" rx="6" fill="#FF3D00"/>
<path fill-rule="evenodd" clip-rule="evenodd" d="M7.00984 4.32031H12.014L18.8158 10.7271C19.21 11.0981 19.4413 11.6207 19.4413 12.1642C19.4466 12.6972 19.2258 13.225 18.8421 13.6013L12.0297 20.0812H6.99407C6.80484 20.0812 6.71023 19.8513 6.85215 19.7206L14.7999 12.3627C14.8472 12.3157 14.8735 12.253 14.8735 12.1851C14.8735 12.1171 14.8419 12.0544 14.7946 12.0074L6.86792 4.68089C6.726 4.55547 6.82061 4.32031 7.00984 4.32031ZM4.72303 13.5947C4.32879 13.208 4.11328 12.6855 4.11328 12.1472C4.11328 11.6037 4.34456 11.0811 4.7388 10.7101L8.39202 7.25067L11.1359 9.80084L8.75471 11.9852C8.7074 12.0322 8.68112 12.0949 8.68112 12.1629C8.68112 12.2308 8.71266 12.2935 8.75997 12.3406L11.1674 14.5667L8.42356 17.1169L4.72303 13.5947ZM13.2498 20.0916H16.5981C16.7874 20.0916 16.882 19.8564 16.7401 19.731L15.1684 18.273L13.2498 20.0916ZM16.7138 4.68089L15.1579 6.11275L13.2445 4.32031H16.5719C16.7611 4.32031 16.8557 4.55025 16.7138 4.68089Z" fill="white"/>
</svg>
